/* XPM */
static char *nh2_1616_xpm[] = {
/* columns rows colors chars-per-pixel */
"16 16 30 1",
"  c gray50",
". c #C0C0C0",
"X c #C1C1C1",
"o c gray76",
"O c #C3C3C3",
"+ c gray77",
"@ c #C6C6C6",
"# c #CBCBCB",
"$ c #CDCDCD",
"% c gray81",
"& c gray83",
"* c gray84",
"= c #D7D7D7",
"- c gray86",
"; c #DDDDDD",
": c gray87",
"> c #DFDFDF",
", c gray88",
"< c #E2E2E2",
"1 c #E4E4E4",
"2 c gray90",
"3 c #E7E7E7",
"4 c #E9E9E9",
"5 c #ECECEC",
"6 c #EEEEEE",
"7 c #EFEFEF",
"8 c #F3F3F3",
"9 c gray96",
"0 c gray98",
"q c gray100",
/* pixels */
"                ",
" qqqqqqqqqqqqqq ",
" q............q ",
" q............q ",
" q............q ",
" q#2..=#.-44-.q ",
" q%0=.>%=>..>=q ",
" q%,7@>%7....7q ",
" q%>%4>%7....7q ",
" q%>.,8%-&..=>q ",
" q&>..8%.2222.q ",
" q........@...q ",
" q............q ",
" q............q ",
" qqqqqqqqqqqqqq ",
"                "
};
