/* XPM */
static char *nh2_3232_xpm[] = {
/* columns rows colors chars-per-pixel */
"32 32 54 1",
"  c gray50",
". c #C0C0C0",
"X c #C1C1C1",
"o c gray76",
"O c #C3C3C3",
"+ c gray77",
"@ c #C5C5C5",
"# c #C6C6C6",
"$ c gray78",
"% c #CBCBCB",
"& c gray81",
"* c #D0D0D0",
"= c #D2D2D2",
"- c LightGray",
"; c gray83",
": c #D5D5D5",
"> c gray84",
", c #D7D7D7",
"< c gray85",
"1 c #DADADA",
"2 c gray86",
"3 c gainsboro",
"4 c #DDDDDD",
"5 c gray87",
"6 c #DFDFDF",
"7 c gray88",
"8 c #E1E1E1",
"9 c #E2E2E2",
"0 c #E4E4E4",
"q c gray90",
"w c #E6E6E6",
"e c #E7E7E7",
"r c gray91",
"t c #E9E9E9",
"y c #EAEAEA",
"u c #ECECEC",
"i c gray93",
"p c #EEEEEE",
"a c #EFEFEF",
"s c gray94",
"d c #F1F1F1",
"f c gray95",
"g c #F3F3F3",
"h c #F4F4F4",
"j c gray96",
"k c #F6F6F6",
"l c gray97",
"z c #F8F8F8",
"x c gray98",
"c c #FBFBFB",
"v c gray99",
"b c #FDFDFD",
"n c #FEFEFE",
"m c gray100",
/* pixels */
"                                ",
" mmmmmmmmmmmmmmmmmmmmmmmmmmmmmm ",
" m............................m ",
" m............................m ",
" m............................m ",
" m............................m ",
" m............................m ",
" m............................m ",
" m............................m ",
" m..,a,.....6u.....1uzzu=.....m ",
" m..6mz$....em...$amu66amu....m ",
" m..6mmu....em...am=....,mt...m ",
" m..6mum=...em..,m1......6m%..m ",
" m..6m%zz$..em..tz.......%m6..m ",
" m..6m$=mt..em..ka........mt..m ",
" m..6m$.em=.em..zu........zu..m ",
" m..6m$.$zz.em..ka........zt..m ",
" m..6m$..=meem..em$......%m6..m ",
" m..6m$...tmam..%m6......tm$..m ",
" m..6m%...$mmm...em6....tm6...m ",
" m..6m%....,mm....6mmuamm6....m ",
" m..%6......16.....$1te1$.....m ",
" m............................m ",
" m............................m ",
" m............................m ",
" m............................m ",
" m............................m ",
" m............................m ",
" m............................m ",
" m............................m ",
" mmmmmmmmmmmmmmmmmmmmmmmmmmmmmm ",
"                                "
};
